<svg width="278" height="278" viewBox="0 0 278 278" fill="none" xmlns="http://www.w3.org/2000/svg">
<g id="clock">
<g id="minutes" clip-path="url(#clip0_839_0)">
<path id="Vector" d="M139.169 11.158V0.89389" stroke="#222222" stroke-width="2" stroke-miterlimit="10" stroke-linecap="round"/>
<path id="Vector_2" d="M125.848 11.8468L124.78 1.64398" stroke="#222222" stroke-width="2" stroke-miterlimit="10" stroke-linecap="round"/>
<path id="Vector_3" d="M112.672 13.9288L110.551 3.89429" stroke="#222222" stroke-width="2" stroke-miterlimit="10" stroke-linecap="round"/>
<path id="Vector_4" d="M99.7856 17.3884L96.627 7.62946" stroke="#222222" stroke-width="2" stroke-miterlimit="10" stroke-linecap="round"/>
<path id="Vector_5" d="M87.3342 22.1722L83.1685 12.8036" stroke="#222222" stroke-width="2" stroke-miterlimit="10" stroke-linecap="round"/>
<path id="Vector_6" d="M75.4397 28.2419L70.3279 19.3555" stroke="#222222" stroke-width="2" stroke-miterlimit="10" stroke-linecap="round"/>
<path id="Vector_7" d="M64.2472 35.5209L58.2351 27.2239" stroke="#222222" stroke-width="2" stroke-miterlimit="10" stroke-linecap="round"/>
<path id="Vector_8" d="M53.8787 43.9403L47.035 36.3169" stroke="#222222" stroke-width="2" stroke-miterlimit="10" stroke-linecap="round"/>
<path id="Vector_9" d="M44.4409 53.3931L36.8419 46.5274" stroke="#222222" stroke-width="2" stroke-miterlimit="10" stroke-linecap="round"/>
<path id="Vector_10" d="M36.0409 63.7873L27.7628 57.7559" stroke="#222222" stroke-width="2" stroke-miterlimit="10" stroke-linecap="round"/>
<path id="Vector_11" d="M28.7699 75.0082L19.912 69.88" stroke="#222222" stroke-width="2" stroke-miterlimit="10" stroke-linecap="round"/>
<path id="Vector_12" d="M22.7044 86.9256L13.3582 82.7541" stroke="#222222" stroke-width="2" stroke-miterlimit="10" stroke-linecap="round"/>
<path id="Vector_13" d="M17.9131 99.417L8.18542 96.2482" stroke="#222222" stroke-width="2" stroke-miterlimit="10" stroke-linecap="round"/>
<path id="Vector_14" d="M14.4569 112.345L4.44696 110.209" stroke="#222222" stroke-width="2" stroke-miterlimit="10" stroke-linecap="round"/>
<path id="Vector_15" d="M12.3588 125.556L2.1886 124.484" stroke="#222222" stroke-width="2" stroke-miterlimit="10" stroke-linecap="round"/>
<path id="Vector_16" d="M11.6569 138.92H1.42566" stroke="#222222" stroke-width="2" stroke-miterlimit="10" stroke-linecap="round"/>
<path id="Vector_17" d="M12.3435 152.284L2.17334 153.355" stroke="#222222" stroke-width="2" stroke-miterlimit="10" stroke-linecap="round"/>
<path id="Vector_18" d="M14.4188 165.502L4.41644 167.638" stroke="#222222" stroke-width="2" stroke-miterlimit="10" stroke-linecap="round"/>
<path id="Vector_19" d="M17.8673 178.43L8.13965 181.599" stroke="#222222" stroke-width="2" stroke-miterlimit="10" stroke-linecap="round"/>
<path id="Vector_20" d="M22.6357 190.929L13.2972 195.1" stroke="#222222" stroke-width="2" stroke-miterlimit="10" stroke-linecap="round"/>
<path id="Vector_21" d="M28.6859 202.854L19.8281 207.982" stroke="#222222" stroke-width="2" stroke-miterlimit="10" stroke-linecap="round"/>
<path id="Vector_22" d="M35.9417 214.083L27.6713 220.114" stroke="#222222" stroke-width="2" stroke-miterlimit="10" stroke-linecap="round"/>
<path id="Vector_23" d="M44.3341 224.484L36.7351 231.35" stroke="#222222" stroke-width="2" stroke-miterlimit="10" stroke-linecap="round"/>
<path id="Vector_24" d="M53.7566 233.953L46.9129 241.584" stroke="#222222" stroke-width="2" stroke-miterlimit="10" stroke-linecap="round"/>
<path id="Vector_25" d="M64.1175 242.387L58.1055 250.684" stroke="#222222" stroke-width="2" stroke-miterlimit="10" stroke-linecap="round"/>
<path id="Vector_26" d="M75.3024 249.682L70.1906 258.568" stroke="#222222" stroke-width="2" stroke-miterlimit="10" stroke-linecap="round"/>
<path id="Vector_27" d="M87.1816 255.767L83.0235 265.135" stroke="#222222" stroke-width="2" stroke-miterlimit="10" stroke-linecap="round"/>
<path id="Vector_28" d="M99.633 260.566L96.4744 270.325" stroke="#222222" stroke-width="2" stroke-miterlimit="10" stroke-linecap="round"/>
<path id="Vector_29" d="M112.519 264.041L110.391 274.075" stroke="#222222" stroke-width="2" stroke-miterlimit="10" stroke-linecap="round"/>
<path id="Vector_30" d="M125.688 266.138L124.62 276.341" stroke="#222222" stroke-width="2" stroke-miterlimit="10" stroke-linecap="round"/>
<path id="Vector_31" d="M139.009 266.85V277.106" stroke="#222222" stroke-width="2" stroke-miterlimit="10" stroke-linecap="round"/>
<path id="Vector_32" d="M152.33 266.153L153.398 276.364" stroke="#222222" stroke-width="2" stroke-miterlimit="10" stroke-linecap="round"/>
<path id="Vector_33" d="M165.506 264.071L167.635 274.106" stroke="#222222" stroke-width="2" stroke-miterlimit="10" stroke-linecap="round"/>
<path id="Vector_34" d="M178.393 260.619L181.551 270.378" stroke="#222222" stroke-width="2" stroke-miterlimit="10" stroke-linecap="round"/>
<path id="Vector_35" d="M190.852 255.828L195.01 265.204" stroke="#222222" stroke-width="2" stroke-miterlimit="10" stroke-linecap="round"/>
<path id="Vector_36" d="M202.738 249.758L207.85 258.645" stroke="#222222" stroke-width="2" stroke-miterlimit="10" stroke-linecap="round"/>
<path id="Vector_37" d="M213.931 242.479L219.943 250.784" stroke="#222222" stroke-width="2" stroke-miterlimit="10" stroke-linecap="round"/>
<path id="Vector_38" d="M224.3 234.067L231.143 241.691" stroke="#222222" stroke-width="2" stroke-miterlimit="10" stroke-linecap="round"/>
<path id="Vector_39" d="M233.737 224.607L241.344 231.473" stroke="#222222" stroke-width="2" stroke-miterlimit="10" stroke-linecap="round"/>
<path id="Vector_40" d="M242.145 214.213L250.415 220.244" stroke="#222222" stroke-width="2" stroke-miterlimit="10" stroke-linecap="round"/>
<path id="Vector_41" d="M249.416 202.992L258.274 208.128" stroke="#222222" stroke-width="2" stroke-miterlimit="10" stroke-linecap="round"/>
<path id="Vector_42" d="M255.481 191.074L264.82 195.246" stroke="#222222" stroke-width="2" stroke-miterlimit="10" stroke-linecap="round"/>
<path id="Vector_43" d="M260.265 178.583L269.993 181.759" stroke="#222222" stroke-width="2" stroke-miterlimit="10" stroke-linecap="round"/>
<path id="Vector_44" d="M263.729 165.663L273.731 167.798" stroke="#222222" stroke-width="2" stroke-miterlimit="10" stroke-linecap="round"/>
<path id="Vector_45" d="M265.819 152.444L275.99 153.516" stroke="#222222" stroke-width="2" stroke-miterlimit="10" stroke-linecap="round"/>
<path id="Vector_46" d="M266.529 139.08H276.753" stroke="#222222" stroke-width="2" stroke-miterlimit="10" stroke-linecap="round"/>
<path id="Vector_47" d="M265.835 125.716L276.012 124.645" stroke="#222222" stroke-width="2" stroke-miterlimit="10" stroke-linecap="round"/>
<path id="Vector_48" d="M263.759 112.498L273.762 110.37" stroke="#222222" stroke-width="2" stroke-miterlimit="10" stroke-linecap="round"/>
<path id="Vector_49" d="M260.319 99.5701L270.046 96.4013" stroke="#222222" stroke-width="2" stroke-miterlimit="10" stroke-linecap="round"/>
<path id="Vector_50" d="M255.542 87.0787L264.889 82.8995" stroke="#222222" stroke-width="2" stroke-miterlimit="10" stroke-linecap="round"/>
<path id="Vector_51" d="M249.492 75.146L258.35 70.0178" stroke="#222222" stroke-width="2" stroke-miterlimit="10" stroke-linecap="round"/>
<path id="Vector_52" d="M242.237 63.9174L250.515 57.886" stroke="#222222" stroke-width="2" stroke-miterlimit="10" stroke-linecap="round"/>
<path id="Vector_53" d="M233.852 53.5156L241.451 46.6499" stroke="#222222" stroke-width="2" stroke-miterlimit="10" stroke-linecap="round"/>
<path id="Vector_54" d="M224.422 44.0475L231.265 36.424" stroke="#222222" stroke-width="2" stroke-miterlimit="10" stroke-linecap="round"/>
<path id="Vector_55" d="M214.061 35.6204L220.073 27.3157" stroke="#222222" stroke-width="2" stroke-miterlimit="10" stroke-linecap="round"/>
<path id="Vector_56" d="M202.876 28.3261L207.995 19.4397" stroke="#222222" stroke-width="2" stroke-miterlimit="10" stroke-linecap="round"/>
<path id="Vector_57" d="M190.997 22.2411L195.155 12.8648" stroke="#222222" stroke-width="2" stroke-miterlimit="10" stroke-linecap="round"/>
<path id="Vector_58" d="M178.545 17.4343L181.711 7.67538" stroke="#222222" stroke-width="2" stroke-miterlimit="10" stroke-linecap="round"/>
<path id="Vector_59" d="M165.667 13.967L167.795 3.9249" stroke="#222222" stroke-width="2" stroke-miterlimit="10" stroke-linecap="round"/>
<path id="Vector_60" d="M152.49 11.8622L153.559 1.6593" stroke="#222222" stroke-width="2" stroke-miterlimit="10" stroke-linecap="round"/>
</g>
<g id="hour handle">
<ellipse id="Ellipse 1" cx="7.98555" cy="7.9858" rx="7.98555" ry="7.9858" transform="matrix(1 -7.0755e-09 0.00359053 0.999994 131 131)" fill="black"/>
<rect id="Rectangle 11" width="3.99278" height="125.223" rx="1.99639" transform="matrix(1 -7.0755e-09 0.00359053 0.999994 136.6 15.8)" fill="black"/>
</g>
<g id="minute handle">
<ellipse id="Ellipse 1_2" cx="4.98563" cy="4.98578" rx="4.98563" ry="4.98578" transform="matrix(1 -7.0755e-09 0.00359053 0.999994 134.011 134)" fill="#555555"/>
<rect id="Rectangle 11_2" width="2" height="125.223" rx="1" transform="matrix(1 -7.0755e-09 0.00359053 0.999994 137.55 14.78)" fill="#555555"/>
</g>
</g>
<defs>
<clipPath id="clip0_839_0">
<rect width="278" height="278" fill="white"/>
</clipPath>
</defs>
</svg>
